<mxfile host="app.diagrams.net" agent="Mozilla/5.0 (Windows NT 10.0; Win64; x64; rv:143.0) Gecko/20100101 Firefox/143.0" version="28.2.5">
  <diagram name="PÃ¡gina-1" id="ptGlZcn1U2q1gdR177Ze">
    <mxGraphModel dx="872" dy="439" grid="1" gridSize="10" guides="1" tooltips="1" connect="1" arrows="1" fold="1" page="1" pageScale="1" pageWidth="827" pageHeight="1169" math="0" shadow="0">
      <root>
        <mxCell id="0" />
        <mxCell id="1" parent="0" />
        <mxCell id="POlbOL656rhdT42h7knA-5" style="edgeStyle=orthogonalEdgeStyle;rounded=0;orthogonalLoop=1;jettySize=auto;html=1;entryX=0;entryY=0.5;entryDx=0;entryDy=0;" edge="1" parent="1" source="POlbOL656rhdT42h7knA-1" target="POlbOL656rhdT42h7knA-3">
          <mxGeometry relative="1" as="geometry" />
        </mxCell>
        <mxCell id="POlbOL656rhdT42h7knA-1" value="" style="ellipse;html=1;shape=startState;fillColor=#000000;strokeColor=#ff0000;" vertex="1" parent="1">
          <mxGeometry x="90" y="20" width="30" height="30" as="geometry" />
        </mxCell>
        <mxCell id="POlbOL656rhdT42h7knA-12" style="edgeStyle=orthogonalEdgeStyle;rounded=0;orthogonalLoop=1;jettySize=auto;html=1;entryX=0;entryY=0.5;entryDx=0;entryDy=0;" edge="1" parent="1" source="POlbOL656rhdT42h7knA-3" target="POlbOL656rhdT42h7knA-10">
          <mxGeometry relative="1" as="geometry" />
        </mxCell>
        <mxCell id="POlbOL656rhdT42h7knA-3" value="Gerente do sistema seleciona as UEg&#39;s&amp;nbsp;" style="rounded=1;whiteSpace=wrap;html=1;arcSize=40;fontColor=#000000;fillColor=#ffffc0;strokeColor=#ff0000;" vertex="1" parent="1">
          <mxGeometry x="180" y="15" width="120" height="40" as="geometry" />
        </mxCell>
        <mxCell id="POlbOL656rhdT42h7knA-14" style="edgeStyle=orthogonalEdgeStyle;rounded=0;orthogonalLoop=1;jettySize=auto;html=1;" edge="1" parent="1" source="POlbOL656rhdT42h7knA-10" target="POlbOL656rhdT42h7knA-13">
          <mxGeometry relative="1" as="geometry" />
        </mxCell>
        <mxCell id="POlbOL656rhdT42h7knA-10" value="Sistema solicita o envio da lista de eleitores das UEg&#39;s" style="rounded=1;whiteSpace=wrap;html=1;arcSize=40;fontColor=#000000;fillColor=#ffffc0;strokeColor=#ff0000;" vertex="1" parent="1">
          <mxGeometry x="370" y="7.5" width="120" height="55" as="geometry" />
        </mxCell>
        <mxCell id="POlbOL656rhdT42h7knA-13" value="UEg&#39;s retornam as listas de eleitores para o gerente" style="rounded=1;whiteSpace=wrap;html=1;arcSize=40;fontColor=#000000;fillColor=#ffffc0;strokeColor=#ff0000;" vertex="1" parent="1">
          <mxGeometry x="370" y="110" width="120" height="60" as="geometry" />
        </mxCell>
      </root>
    </mxGraphModel>
  </diagram>
</mxfile>
